# xmcd
#
# Track frame offsets: 
#        150
#        13617
#        24922
#        39035
#        55382
#        70942
#        87332
#        101892
#        113300
#        128432
#        142900
#        156859
#
# Disc length: 2290 seconds
#
# Revision: 1
# Processed by: cddbd v1.5.2PL0 Copyright (c) Steve Scherf et al.
# Submitted via: ExactAudioCopyFreeDBPlugin 1.0
#
DISCID=8908f00c
DTITLE=The Lady of Country Dagmar - Laﬂ mich damit bloﬂ in Ruhe
DYEAR=1996
DGENRE=Country
TTITLE0=Lass mich dait bloﬂ in ruhe
TTITLE1=Von dir hab ich die Nase voll
TTITLE2=Ich mag starke M‰nner
TTITLE3=Ist es wahr
TTITLE4=Mein grˆsster Schatz liegt zu Haus
TTITLE5=Ich fahr Laster wie Papa
TTITLE6=Trucker
TTITLE7=Teenage-Country-Love
TTITLE8=Ein Cowboy der auch z‰rtlich ist
TTITLE9=Fahr nochmal mit mir nach Nashville
TTITLE10=Du hast doch ein Rad ab
TTITLE11=Tr‰nen wie Feuer
EXTD=
EXTT0=
EXTT1=
EXTT2=
EXTT3=
EXTT4=
EXTT5=
EXTT6=
EXTT7=
EXTT8=
EXTT9=
EXTT10=
EXTT11=
PLAYORDER=
